<svg xmlns="http://www.w3.org/2000/svg" viewBox="0 0 800 200" fill="none">
  <defs>
    <linearGradient id="bannerBg" x1="0" y1="0" x2="800" y2="200" gradientUnits="userSpaceOnUse">
      <stop offset="0%" stop-color="#0f0f1a"/>
      <stop offset="50%" stop-color="#1a1a2e"/>
      <stop offset="100%" stop-color="#16213e"/>
    </linearGradient>
    <linearGradient id="accent" x1="0" y1="0" x2="120" y2="0" gradientUnits="userSpaceOnUse">
      <stop offset="0%" stop-color="#6366f1"/>
      <stop offset="100%" stop-color="#818cf8"/>
    </linearGradient>
  </defs>
  <rect width="800" height="200" rx="12" fill="url(#bannerBg)"/>
  <!-- Subtle grid pattern -->
  <g opacity="0.04" stroke="#fff" stroke-width="1">
    <line x1="0" y1="40" x2="800" y2="40"/><line x1="0" y1="80" x2="800" y2="80"/>
    <line x1="0" y1="120" x2="800" y2="120"/><line x1="0" y1="160" x2="800" y2="160"/>
    <line x1="160" y1="0" x2="160" y2="200"/><line x1="320" y1="0" x2="320" y2="200"/>
    <line x1="480" y1="0" x2="480" y2="200"/><line x1="640" y1="0" x2="640" y2="200"/>
  </g>
  <!-- Logo circle -->
  <circle cx="100" cy="100" r="50" fill="url(#accent)" opacity="0.9"/>
  <path d="M100 70 L100 120" stroke="#fff" stroke-width="8" stroke-linecap="round"/>
  <path d="M82 105 L100 123 L118 105" stroke="#fff" stroke-width="8" stroke-linecap="round" stroke-linejoin="round" fill="none"/>
  <path d="M75 130 L125 130" stroke="rgba(255,255,255,0.7)" stroke-width="6" stroke-linecap="round"/>
  <!-- Title -->
  <text x="180" y="90" font-family="-apple-system, BlinkMacSystemFont, 'SF Pro Display', 'Segoe UI', sans-serif" font-size="36" font-weight="700" fill="#e8e8f0">YouTube Downloader</text>
  <!-- Subtitle -->
  <text x="180" y="125" font-family="-apple-system, BlinkMacSystemFont, 'SF Pro Display', 'Segoe UI', sans-serif" font-size="16" fill="#9ca3af" font-weight="400">Simple et léger · Tauri 2 · Rust + HTML/CSS/JS</text>
  <!-- Badge -->
  <rect x="180" y="145" width="60" height="24" rx="12" fill="url(#accent)" opacity="0.8"/>
  <text x="210" y="162" font-family="-apple-system, sans-serif" font-size="12" fill="#fff" font-weight="600" text-anchor="middle">v0.1.0</text>
  <rect x="250" y="145" width="80" height="24" rx="12" fill="rgba(255,255,255,0.08)" stroke="rgba(255,255,255,0.15)" stroke-width="1"/>
  <text x="290" y="162" font-family="-apple-system, sans-serif" font-size="12" fill="#9ca3af" font-weight="500" text-anchor="middle">MIT License</text>
  <!-- Stars decoration -->
  <g opacity="0.15" fill="#818cf8">
    <circle cx="650" cy="40" r="2"/><circle cx="700" cy="70" r="1.5"/>
    <circle cx="730" cy="30" r="1"/><circle cx="680" cy="90" r="1.5"/>
    <circle cx="750" cy="100" r="2"/><circle cx="720" cy="150" r="1"/>
    <circle cx="670" cy="160" r="1.5"/><circle cx="760" cy="60" r="1"/>
  </g>
</svg>
